<?xml version="1.0" standalone="no"?>
<!DOCTYPE svg PUBLIC "-//W3C//DTD SVG 20010904//EN"
 "http://www.w3.org/TR/2001/REC-SVG-20010904/DTD/svg10.dtd">
<svg version="1.0" xmlns="http://www.w3.org/2000/svg"
 width="500.000000pt" height="500.000000pt" viewBox="0 0 500.000000 500.000000"
 preserveAspectRatio="xMidYMid meet">

<g transform="translate(0.000000,500.000000) scale(0.100000,-0.100000)"
fill="#000000" stroke="none">
<path d="M1070 2917 c-36 -18 -41 -78 -8 -101 31 -22 64 -20 88 4 51 51 -14
130 -80 97z"/>
<path d="M1900 2748 l0 -133 -19 41 c-29 64 -80 97 -156 102 -81 5 -125 -10
-168 -57 l-35 -39 -22 30 c-36 49 -77 68 -148 68 -90 0 -142 -33 -176 -110
l-15 -35 -1 73 0 72 -55 0 -55 0 0 -190 0 -190 55 0 55 0 0 78 1 77 14 -38
c27 -78 86 -117 176 -117 62 0 111 22 147 66 l28 33 26 -33 c35 -44 85 -66
147 -66 89 0 150 35 182 105 l19 40 0 -73 0 -73 58 3 57 3 -2 69 -1 70 26 -49
c51 -94 147 -124 226 -70 l36 24 0 -25 c0 -24 2 -25 58 -22 l57 3 3 43 3 42
27 -31 c34 -42 79 -59 149 -59 171 0 203 178 40 220 -86 22 -92 26 -92 51 0
33 52 39 80 9 13 -15 30 -20 67 -20 52 0 56 6 33 51 -24 46 -70 69 -138 69
-110 0 -172 -56 -151 -137 10 -42 60 -77 126 -88 21 -4 48 -15 60 -25 19 -15
20 -20 9 -34 -19 -22 -64 -20 -86 4 -14 15 -31 20 -72 20 l-53 0 -1 38 c0 20
-1 78 -2 127 l-2 90 -57 3 c-57 3 -58 2 -58 -23 l0 -27 -32 27 c-29 24 -38 27
-95 23 -55 -3 -67 -8 -98 -38 -20 -19 -39 -46 -43 -60 -4 -15 -9 22 -12 95
l-5 120 -57 3 -58 3 0 -133z m-504 -103 c19 -19 35 -25 69 -25 l45 0 0 -50 0
-50 -46 0 c-37 0 -52 -5 -70 -25 -29 -32 -58 -32 -89 0 -20 19 -25 34 -25 75
0 87 63 128 116 75z m367 -6 c19 -23 23 -98 7 -129 -14 -26 -65 -42 -96 -30
-33 13 -57 70 -48 116 13 70 93 95 137 43z m515 -5 c49 -56 15 -154 -54 -154
-47 0 -69 13 -84 49 -41 101 67 184 138 105z"/>
<path d="M2840 2630 l0 -250 55 0 55 0 0 78 1 77 13 -38 c30 -83 95 -121 197
-115 57 3 74 8 106 34 21 17 46 46 55 65 18 34 18 33 18 -123 l0 -158 60 0 60
0 0 117 0 116 25 -23 c19 -18 39 -25 83 -27 68 -5 111 17 144 73 l21 35 17
-29 c27 -44 77 -75 131 -80 73 -7 116 5 160 45 l39 35 0 -41 0 -41 146 0 145
0 -3 48 -3 47 -77 5 -76 5 79 94 c73 85 79 97 79 137 l0 44 -145 0 -145 0 0
-41 0 -42 -24 26 c-42 45 -82 59 -157 55 -75 -4 -108 -21 -146 -76 l-21 -32
-21 35 c-45 77 -158 102 -220 49 l-31 -26 0 26 c0 25 -2 26 -60 26 l-60 0 0
-67 c-1 -65 -1 -67 -14 -38 -17 37 -62 80 -99 94 -45 17 -133 13 -175 -8 -45
-23 -66 -46 -86 -91 -15 -34 -15 -29 -16 98 l0 132 -55 0 -55 0 0 -250z m353
20 c53 -42 43 -140 -17 -165 -34 -15 -71 -5 -92 23 -16 21 -18 96 -3 123 21
40 74 49 112 19z m386 5 c82 -42 52 -175 -40 -175 -107 0 -103 181 4 189 4 1
21 -6 36 -14z m383 -2 c36 -32 23 -43 -52 -43 -74 0 -84 8 -53 42 20 23 80 24
105 1z m266 8 c-10 -26 -137 -170 -143 -161 -11 18 -100 12 -128 -10 -14 -11
-36 -20 -49 -20 -32 0 -68 27 -68 51 0 18 8 19 131 19 l132 0 -7 65 -7 65 72
0 c39 0 69 -4 67 -9z"/>
<path d="M650 2570 l0 -190 54 0 54 0 4 126 c3 118 4 127 27 145 30 25 62 24
95 -2 26 -20 26 -22 26 -145 l0 -124 55 0 55 0 0 143 c0 160 -10 191 -71 223
-40 20 -130 15 -157 -9 -24 -22 -32 -21 -32 3 0 18 -7 20 -55 20 l-55 0 0
-190z"/>
</g>
</svg>
